<?xml version="1.0" standalone="no"?>
<!DOCTYPE svg PUBLIC "-//W3C//DTD SVG 20010904//EN"
 "http://www.w3.org/TR/2001/REC-SVG-20010904/DTD/svg10.dtd">
<svg version="1.0" xmlns="http://www.w3.org/2000/svg"
 width="800.000000pt" height="800.000000pt" viewBox="0 0 800.000000 800.000000"
 preserveAspectRatio="xMidYMid meet">
<metadata>
Created by potrace 1.14, written by Peter Selinger 2001-2017
</metadata>
<g transform="translate(0.000000,800.000000) scale(0.100000,-0.100000)"
fill="#000000" stroke="none">
<path d="M5167 6723 c-1 -1 -50 -4 -110 -7 -59 -3 -124 -9 -145 -12 -86 -12
-219 -34 -242 -39 -14 -3 -36 -8 -50 -11 -111 -23 -361 -102 -460 -146 -199
-89 -337 -164 -485 -265 -168 -116 -260 -192 -403 -334 -151 -149 -117 -126
53 36 34 32 100 88 131 112 16 12 49 37 74 55 157 118 372 239 571 321 135 55
368 128 459 143 14 2 45 9 70 14 25 5 68 12 95 15 28 4 61 8 75 11 161 27 552
21 725 -10 17 -3 48 -8 70 -11 22 -4 48 -8 57 -11 10 -3 30 -7 45 -10 66 -12
270 -69 323 -91 8 -3 17 -7 20 -7 31 -6 192 -76 303 -133 384 -192 660 -430
975 -838 4 -5 19 -28 32 -50 13 -22 27 -42 30 -45 9 -8 85 -140 127 -220 93
-180 186 -435 219 -600 3 -14 7 -33 10 -42 6 -19 14 -62 19 -93 8 -58 17 -123
21 -145 16 -92 22 -398 10 -525 -10 -108 -27 -232 -41 -295 -4 -14 -8 -36 -11
-50 -19 -97 -81 -302 -114 -375 -9 -22 -21 -51 -25 -65 -15 -49 -115 -247
-180 -355 -167 -278 -395 -530 -665 -738 -63 -49 -90 -67 -98 -67 -6 0 -12 -4
-14 -8 -7 -17 -208 -136 -333 -197 -262 -127 -593 -227 -835 -251 -36 -3 -93
-9 -127 -13 -72 -8 -407 -7 -473 2 -25 4 -66 9 -91 12 -25 3 -83 12 -130 21
-46 8 -97 18 -114 21 -98 17 -357 102 -472 154 -68 31 -97 42 -105 41 -3 -1
-12 5 -18 13 -7 8 -17 15 -23 15 -17 0 -231 126 -323 191 -127 88 -205 153
-329 270 -127 120 -121 107 10 -25 253 -255 589 -478 913 -607 12 -5 32 -13
45 -18 127 -54 405 -130 537 -147 19 -2 46 -6 60 -9 165 -32 550 -37 742 -9
21 2 50 7 65 9 93 12 177 29 281 56 64 17 124 32 132 34 41 10 216 75 300 112
65 29 255 126 282 144 14 11 31 19 36 19 6 0 17 6 24 13 7 6 52 38 100 69 48
32 96 64 105 72 229 184 379 329 488 470 17 21 35 44 41 51 48 49 274 411 274
438 0 6 6 18 14 26 26 31 139 314 166 416 4 17 17 64 28 105 11 41 23 89 26
105 47 264 51 310 51 565 0 193 -6 304 -20 378 -1 9 -6 42 -11 72 -4 30 -8 57
-9 60 -1 3 -7 32 -14 65 -7 33 -20 85 -29 115 -9 30 -16 60 -17 65 -1 6 -4 17
-7 25 -3 8 -25 69 -48 135 -47 135 -136 326 -198 429 -23 37 -42 70 -42 73 0
8 -84 128 -92 131 -5 2 -8 8 -8 13 0 9 -53 83 -70 99 -3 3 -16 19 -29 35 -60
78 -178 204 -287 306 -105 97 -330 269 -353 269 -6 0 -11 4 -11 8 0 5 -15 16
-32 25 -18 10 -51 28 -73 42 -95 59 -424 212 -475 221 -3 0 -50 15 -105 32
-102 32 -239 66 -309 77 -21 3 -41 7 -45 9 -3 2 -35 7 -71 11 -36 3 -78 8 -95
11 -71 9 -362 23 -368 17z"/>
<path d="M3095 5720 c-3 -5 -1 -10 4 -10 6 0 11 5 11 10 0 6 -2 10 -4 10 -3 0
-8 -4 -11 -10z"/>
<path d="M538 4945 c-2 -2 -23 -5 -48 -8 -155 -20 -299 -98 -385 -209 -56 -72
-85 -164 -89 -278 -6 -183 60 -305 222 -411 40 -26 169 -95 287 -153 176 -87
220 -114 250 -149 44 -51 54 -74 60 -141 17 -196 -139 -280 -410 -222 -39 8
-171 59 -227 87 -32 16 -64 29 -73 29 -12 0 -35 -37 -50 -80 -4 -12 -27 -69
-52 -128 -22 -53 -24 -66 -14 -85 15 -29 130 -75 253 -103 10 -2 28 -6 40 -9
117 -29 347 -39 448 -21 52 9 200 64 200 74 0 4 13 13 29 20 44 19 143 130
173 193 45 93 51 121 52 249 1 117 -5 150 -37 224 -21 49 -97 153 -123 169 -7
4 -19 14 -27 21 -30 30 -246 156 -277 161 -3 0 -61 29 -130 63 -170 84 -214
126 -219 212 -3 59 20 111 65 148 99 82 302 71 500 -25 57 -28 80 -35 92 -27
9 6 43 61 75 124 l57 114 -22 24 c-28 30 -149 83 -223 98 -11 2 -31 6 -45 9
-102 22 -138 27 -237 29 -62 2 -114 2 -115 1z"/>
<path d="M1416 4921 c-7 -14 8 -87 78 -401 41 -184 80 -355 86 -380 6 -25 12
-54 14 -65 3 -11 10 -42 16 -70 6 -27 13 -59 16 -70 6 -33 124 -566 139 -630
7 -33 21 -95 31 -137 12 -55 22 -78 33 -79 9 -1 87 -2 174 -3 150 -2 159 -1
169 19 10 18 63 235 73 297 2 15 8 44 14 65 6 21 12 50 15 66 3 15 7 35 10 45
3 9 7 28 10 42 2 14 12 57 21 95 9 39 19 79 21 90 8 39 13 62 39 175 14 63 29
126 31 140 3 14 11 52 19 85 8 33 21 94 30 135 10 41 19 82 23 90 6 18 3 33
43 -185 16 -88 35 -182 41 -210 6 -27 12 -59 13 -70 1 -11 6 -38 10 -60 5 -22
10 -49 11 -60 1 -11 3 -20 4 -20 1 0 3 -9 5 -20 2 -11 7 -36 11 -55 3 -19 8
-44 9 -55 2 -11 15 -81 30 -155 15 -74 29 -146 31 -160 2 -14 14 -72 25 -130
12 -58 23 -116 26 -130 2 -13 6 -27 9 -29 3 -3 75 -6 162 -7 179 -2 195 3 207
63 11 53 11 53 25 103 7 25 14 55 16 66 2 12 15 64 28 116 14 52 27 106 30
121 2 15 7 30 10 35 3 5 8 23 11 40 3 18 15 69 26 114 35 140 60 241 64 263 2
11 4 20 5 20 1 0 3 7 5 15 2 8 11 47 20 85 17 69 21 88 29 123 2 9 12 46 21
82 9 36 18 72 20 80 2 8 24 98 50 200 75 303 74 297 47 307 -25 10 -314 9
-329 0 -6 -4 -20 -51 -32 -104 -12 -54 -26 -116 -32 -138 -5 -22 -11 -49 -14
-60 -2 -11 -9 -42 -15 -70 -6 -27 -13 -61 -16 -75 -4 -24 -23 -109 -79 -355
-14 -60 -27 -119 -29 -130 -2 -11 -11 -50 -20 -86 -8 -37 -17 -78 -20 -90 -2
-13 -12 -58 -22 -99 -9 -41 -17 -81 -17 -87 0 -7 -3 -13 -7 -13 -3 0 -12 35
-19 78 -7 42 -15 87 -17 100 -2 12 -6 32 -8 45 -4 31 -18 108 -22 132 -18 92
-27 144 -30 170 -3 28 -6 45 -19 105 -3 14 -8 41 -10 60 -3 19 -7 46 -10 60
-8 37 -18 103 -19 123 0 9 -3 17 -6 17 -3 0 -5 10 -6 23 0 12 -3 38 -7 57 -3
19 -13 76 -22 125 -31 180 -34 195 -48 196 -52 6 -286 4 -303 -2 -21 -7 -32
-43 -58 -179 -3 -14 -7 -34 -10 -45 -10 -46 -66 -314 -71 -346 -3 -19 -10 -50
-15 -69 -9 -33 -15 -63 -26 -120 -2 -14 -7 -36 -10 -50 -3 -14 -8 -36 -10 -50
-3 -14 -13 -65 -24 -115 -18 -87 -41 -195 -46 -224 -1 -7 -8 -36 -15 -65 l-13
-51 -7 35 c-4 19 -10 52 -13 73 -3 21 -13 73 -22 115 -9 42 -18 86 -20 97 -11
58 -26 133 -30 155 -2 14 -7 36 -10 50 -3 14 -8 36 -10 50 -3 14 -9 48 -14 75
-6 28 -11 59 -13 70 -2 11 -6 31 -10 45 -5 22 -11 52 -32 160 -3 14 -8 39 -11
55 -2 17 -14 75 -24 130 -37 188 -41 208 -51 221 -9 12 -357 16 -363 5z"/>
<path d="M4111 4893 c-8 -16 -90 -254 -95 -278 -3 -12 -155 -484 -163 -505 -3
-8 -7 -19 -9 -25 -5 -21 -137 -423 -155 -472 -10 -29 -21 -63 -23 -75 -3 -13
-26 -84 -51 -158 -26 -74 -48 -142 -50 -150 -1 -8 -11 -39 -20 -68 -13 -38
-15 -56 -7 -64 7 -7 68 -10 164 -10 239 0 215 -4 229 45 6 23 14 49 17 57 3 8
6 22 8 30 2 8 12 49 24 90 11 41 31 116 44 165 l23 90 247 1 247 0 5 -25 c3
-14 10 -39 15 -56 15 -51 41 -148 49 -185 20 -86 52 -196 60 -204 5 -5 95 -9
200 -9 150 1 195 4 206 14 12 12 9 27 -15 99 -16 47 -66 200 -111 340 -45 140
-99 307 -120 370 -21 63 -89 270 -150 460 -152 468 -156 481 -171 513 l-12 27
-188 0 c-169 0 -189 -2 -198 -17z m209 -494 c17 -71 55 -212 120 -458 17 -62
29 -116 26 -118 -6 -7 -336 -6 -342 0 -5 5 100 418 129 507 6 19 12 37 12 40
5 29 30 109 32 106 2 -2 13 -37 23 -77z"/>
<path d="M5362 4897 c-13 -15 -16 -1775 -3 -1796 6 -10 41 -13 142 -13 74 0
139 1 146 1 38 3 38 7 37 644 -1 342 3 614 7 611 5 -3 9 -12 9 -20 0 -8 4 -14
8 -14 4 0 13 -12 19 -27 6 -16 31 -64 55 -108 24 -44 64 -116 88 -160 23 -44
55 -102 70 -130 15 -27 76 -140 135 -250 59 -110 120 -222 135 -250 15 -27 51
-94 80 -149 84 -157 73 -149 230 -149 100 1 135 4 141 14 10 16 12 1768 3
1793 -5 14 -29 16 -160 16 l-154 0 -6 -25 c-4 -14 -7 -289 -7 -611 -1 -560 -1
-585 -18 -562 -10 12 -16 24 -14 26 2 3 -6 21 -19 41 -12 20 -63 115 -113 211
-50 96 -111 213 -135 260 -25 47 -73 139 -108 205 -34 66 -85 163 -113 215
-27 52 -64 122 -81 155 -17 33 -38 65 -46 72 -22 18 -314 18 -328 0z"/>
</g>
</svg>
